<svg xmlns="http://www.w3.org/2000/svg" viewBox="0 0 1200 800">
<defs>
 <linearGradient id="sky" x1="0" y1="0" x2="0" y2="1"><stop stop-color="#4f8994"/><stop offset=".58" stop-color="#8eb9bd"/><stop offset="1" stop-color="#d7e5db"/></linearGradient>
 <linearGradient id="mount" x1="0" y1="0" x2="1" y2="1"><stop stop-color="#1d5c5c"/><stop offset="1" stop-color="#123d3d"/></linearGradient>
 <linearGradient id="forest" x1="0" y1="0" x2="0" y2="1"><stop stop-color="#174e45"/><stop offset="1" stop-color="#062f2b"/></linearGradient>
 <radialGradient id="sun"><stop stop-color="#fff8d6" stop-opacity=".9"/><stop offset="1" stop-color="#fff8d6" stop-opacity="0"/></radialGradient>
</defs>
<rect width="1200" height="800" fill="url(#sky)"/>
<circle cx="950" cy="150" r="250" fill="url(#sun)"/>
<path d="M0 470L180 290l75 65L420 180l140 185L730 245l145 155L1010 250l190 210v340H0z" fill="#d4e2de" opacity=".9"/>
<path d="M0 520L210 345l95 95L450 245l130 160L760 300l150 145L1030 330l170 170v300H0z" fill="url(#mount)" opacity=".82"/>
<path d="M0 610c170-70 320-36 470 16 180 63 332-50 460-44 110 5 186 42 270 98v120H0z" fill="#143f38"/>
<g fill="url(#forest)">
 <path d="M20 680l45-140 45 140zM75 700l58-188 58 188zM160 700l42-135 42 135zM940 690l52-172 52 172zM1010 710l65-205 65 205zM1110 700l43-146 43 146z"/>
</g>
<rect width="1200" height="800" fill="#002e2b" opacity=".12"/>
</svg>